<?xml version="1.0" encoding="UTF-8"?>
<svg class="zoom-0_75" width="100" height="77" viewBox="0 0 100 77" fill="none" xmlns="http://www.w3.org/2000/svg">
    <path d="M6.65221 73.4819H15.2477V76.7576H1.243V74.5132L9.81376 62.3811H1.1936V59.0933H15.1612V61.277L6.65221 73.4819Z" fill="#FF5C01" fill-opacity="0.9"/>
    <path d="M31.3271 59.0933V70.6552C31.3271 71.9654 31.0431 73.1018 30.475 74.0643C29.9069 75.0187 29.0918 75.7466 28.0297 76.248C26.9676 76.7495 25.7121 77.0002 24.263 77.0002C22.073 77.0002 20.3481 76.4422 19.0885 75.326C17.8288 74.2099 17.1866 72.6812 17.1619 70.7401V59.0933H21.5214V70.825C21.5708 72.758 22.4847 73.7246 24.263 73.7246C25.1604 73.7246 25.8397 73.4819 26.3007 72.9966C26.7618 72.5114 26.9923 71.7228 26.9923 70.6309V59.0933H31.3271Z" fill="#FF5C01" fill-opacity="0.9"/>
    <path d="M34.0441 76.7576V59.0933H40.503C42.8165 59.0933 44.5743 59.5098 45.7764 60.3429C46.9867 61.1759 47.5918 62.3851 47.5918 63.9704C47.5918 64.8843 47.3777 65.6648 46.9496 66.3119C46.5215 66.9589 45.8916 67.4361 45.0601 67.7434C45.9987 67.9861 46.7191 68.439 47.2213 69.1022C47.7235 69.7655 47.9746 70.5743 47.9746 71.5287C47.9746 73.2595 47.4148 74.5617 46.2951 75.4352C45.1836 76.3006 43.5328 76.7414 41.3428 76.7576H34.0441ZM38.3788 69.2478V73.4819H41.2193C42.0014 73.4819 42.6025 73.308 43.0224 72.9602C43.4423 72.6044 43.6522 72.107 43.6522 71.468C43.6522 69.996 42.9071 69.2559 41.4169 69.2478H38.3788ZM38.3788 66.4574H40.6389C41.5857 66.4494 42.2608 66.2795 42.6642 65.9479C43.0676 65.6163 43.2694 65.127 43.2694 64.4799C43.2694 63.7358 43.0512 63.202 42.6148 62.8785C42.1785 62.5469 41.4745 62.3811 40.503 62.3811H38.3788V66.4574Z" fill="#FF5C01" fill-opacity="0.9"/>
    <path d="M57.0517 70.5217H54.7053V76.7576H50.3705V59.0933H57.4469C59.5793 59.0933 61.2466 59.5583 62.4486 60.4885C63.6506 61.4186 64.2517 62.7329 64.2517 64.4314C64.2517 65.6608 63.9964 66.6799 63.486 67.4887C62.9838 68.2975 62.1934 68.9526 61.1148 69.4541L64.8692 76.5756V76.7576H60.2256L57.0517 70.5217ZM54.7053 67.2339H57.4469C58.2703 67.2339 58.8877 67.0236 59.2994 66.603C59.7193 66.1744 59.9292 65.5799 59.9292 64.8196C59.9292 64.0593 59.7193 63.4649 59.2994 63.0362C58.8795 62.5994 58.262 62.3811 57.4469 62.3811H54.7053V67.2339Z" fill="#FF5C01" fill-opacity="0.9"/>
    <path d="M96.7869 39.4466V34.8847C100.391 42.1723 99.2605 37.0526 96.7869 31.7675C95.1297 28.2266 90.0615 21.2966 87.2803 20.0537C85.4828 16.9921 70.016 -13.4326 42.6177 7.02631C20.222 23.7496 8.42462 18.1729 8.3309 23.1518C8.23718 28.1307 11.0235 29.1978 4.62771 39.4466C1.3967 41.0615 -4.37165e-05 43.7424 1.02622e-09 47.7611C12.8547 33.2107 11.0235 27.0785 11.0235 27.0785C13.2842 42.1527 2.214 56.7054 2.214 56.7054H16.0518C34.3176 42.1723 54.2439 46.7355 54.2439 46.7355L49.2624 56.685L64.2072 56.7054L73.6168 42.1723C73.6168 42.1723 79.7947 38.927 73.6168 50.4709L89.8545 47.7611L92.1865 45.1893L93.7205 41.2068L96.7869 39.4466Z" fill="#FF5C01" fill-opacity="0.9"/>
    <path d="M84.1628 30.4403L87.1097 35.2168C88.5385 35.2168 91.164 35.1107 90.2352 34.6861C89.3065 34.2616 89.2529 33.2709 89.2529 32.4748C90.5924 31.3248 94.5216 32.0325 95.5039 32.0325C91.3604 29.485 84.8772 29.4673 84.1628 30.4403Z" fill="#FCFCFC"/>
</svg>