<svg style="width:150px; height:auto;" width="282" height="56" viewBox="0 0 282 56" fill="none" xmlns="http://www.w3.org/2000/svg">
            <path d="M17.0786 44.9973H43.9717V55.2412H0.154558V48.2222L26.9703 10.2818H0V0H43.7012V6.82927L17.0786 44.9973Z" fill="#FF5C01"></path>
            <path d="M94.2803 0V36.1572C94.2803 40.2547 93.3916 43.8085 91.6142 46.8184C89.8367 49.8031 87.2865 52.0795 83.9635 53.6477C80.6405 55.2159 76.7122 56 72.1785 56C65.3264 56 59.9298 54.2547 55.9886 50.7642C52.0473 47.2737 50.0381 42.4932 49.9608 36.4228V0H63.6005V36.6883C63.7551 42.7335 66.6144 45.7561 72.1785 45.7561C74.9863 45.7561 77.1115 44.9973 78.554 43.4797C79.9966 41.9621 80.7178 39.4959 80.7178 36.0813V0H94.2803Z" fill="#FF5C01"></path>
            <path d="M102.781 55.2412V0H122.989C130.228 0 135.728 1.30262 139.488 3.90786C143.275 6.5131 145.168 10.2945 145.168 15.252C145.168 18.1102 144.499 20.551 143.159 22.5745C141.82 24.598 139.849 26.0903 137.247 27.0515C140.184 27.8103 142.438 29.2267 144.009 31.3008C145.581 33.3749 146.366 35.9042 146.366 38.8889C146.366 44.3017 144.615 48.374 141.111 51.1057C137.634 53.8121 132.469 55.1906 125.617 55.2412H102.781ZM116.343 31.7561V44.9973H125.23C127.678 44.9973 129.558 44.4535 130.872 43.3659C132.186 42.2529 132.842 40.6974 132.842 38.6992C132.842 34.0958 130.511 31.7814 125.849 31.7561H116.343ZM116.343 23.0298H123.414C126.377 23.0045 128.489 22.4734 129.751 21.4363C131.014 20.3993 131.645 18.869 131.645 16.8455C131.645 14.5185 130.962 12.8491 129.597 11.8374C128.231 10.8004 126.029 10.2818 122.989 10.2818H116.343V23.0298Z" fill="#FF5C01"></path>
            <path d="M174.766 35.7398H167.425V55.2412H153.862V0H176.003C182.674 0 187.891 1.45438 191.652 4.36314C195.413 7.27191 197.293 11.3821 197.293 16.6938C197.293 20.5384 196.495 23.7254 194.897 26.2547C193.326 28.7841 190.853 30.8329 187.479 32.4011L199.225 54.6721V55.2412H184.697L174.766 35.7398ZM167.425 25.458H176.003C178.579 25.458 180.511 24.8004 181.799 23.4851C183.112 22.1445 183.769 20.2855 183.769 17.9079C183.769 15.5303 183.112 13.6712 181.799 12.3306C180.485 10.9648 178.553 10.2818 176.003 10.2818H167.425V25.458Z" fill="#FF5C01"></path>
            <path d="M212.942 42.8347C215.003 42.8347 216.716 43.4417 218.081 44.6558C219.446 45.8446 220.129 47.3749 220.129 49.2466C220.129 51.1183 219.446 52.6612 218.081 53.8753C216.716 55.0641 215.003 55.6585 212.942 55.6585C210.856 55.6585 209.13 55.0515 207.764 53.8374C206.425 52.6233 205.755 51.093 205.755 49.2466C205.755 47.4002 206.425 45.8699 207.764 44.6558C209.13 43.4417 210.856 42.8347 212.942 42.8347Z" fill="#FF5C01"></path>
            <path d="M234.28 55.2412H227.75V26.103H234.28V55.2412Z" fill="#FF5C01"></path>
            <path d="M245.177 55.2412H238.647V34.7154H245.177V55.2412ZM238.26 29.4228C238.26 28.5122 238.595 27.766 239.265 27.1843C239.935 26.6025 240.804 26.3117 241.873 26.3117C242.942 26.3117 243.811 26.6025 244.481 27.1843C245.151 27.766 245.486 28.5122 245.486 29.4228C245.486 30.3333 245.151 31.0795 244.481 31.6612C243.811 32.243 242.942 32.5339 241.873 32.5339C240.804 32.5339 239.935 32.243 239.265 31.6612C238.595 31.0795 238.26 30.3333 238.26 29.4228Z" fill="#FF5C01"></path>
            <path d="M250.644 55.2412V39.1545H247.611V34.7154H250.644V33.084C250.644 30.7444 251.346 28.9295 252.75 27.6396C254.154 26.3496 256.124 25.7046 258.662 25.7046C259.589 25.7046 260.607 25.8374 261.714 26.103L261.734 30.8076C261.334 30.6938 260.8 30.6369 260.13 30.6369C258.159 30.6369 257.174 31.4715 257.174 33.1409V34.7154H261.251V39.1545H257.174V55.2412H250.644Z" fill="#FF5C01"></path>
            <path d="M273.19 55.6206C269.983 55.6206 267.388 54.6847 265.404 52.813C263.421 50.9286 262.429 48.4815 262.429 45.4715V44.9404C262.429 42.841 262.822 40.9883 263.608 39.3821C264.406 37.776 265.565 36.5366 267.085 35.664C268.605 34.7787 270.408 34.336 272.495 34.336C275.431 34.336 277.75 35.234 279.45 37.0298C281.15 38.813 282 41.3044 282 44.5041V46.9892H269.056C269.288 48.14 269.796 49.0443 270.582 49.7019C271.368 50.3595 272.385 50.6883 273.635 50.6883C275.695 50.6883 277.305 49.9801 278.465 48.5637L281.44 52.0163C280.628 53.1165 279.476 53.9955 277.982 54.6531C276.5 55.2981 274.903 55.6206 273.19 55.6206ZM272.456 39.2683C270.55 39.2683 269.416 40.5077 269.056 42.9865H275.625V42.4932C275.65 41.4688 275.386 40.6784 274.832 40.122C274.279 39.5528 273.486 39.2683 272.456 39.2683Z" fill="#FF5C01"></path>
          </svg>