<svg width="8" height="11" viewBox="0 0 10 13" fill="none" xmlns="http://www.w3.org/2000/svg">
<path d="M8.77688 4.29374L2.37803 0.255817C2.11683 0.0919675 1.7635 0 1.3952 0C1.0269 0 0.673568 0.0919675 0.412368 0.255817C0.281703 0.337598 0.177991 0.434896 0.107215 0.542099C0.0364393 0.649301 0 0.764286 0 0.88042C0 0.996553 0.0364393 1.11154 0.107215 1.21874C0.177991 1.32594 0.281703 1.42324 0.412368 1.50502L6.82516 5.53415C6.95583 5.61593 7.05954 5.71323 7.13032 5.82043C7.20109 5.92764 7.23753 6.04262 7.23753 6.15875C7.23753 6.27489 7.20109 6.38987 7.13032 6.49707C7.05954 6.60428 6.95583 6.70158 6.82516 6.78336L0.412368 10.8125C0.149857 10.977 0.0016449 11.2005 0.000337694 11.434C-0.000969515 11.6674 0.144736 11.8916 0.405399 12.0573C0.666062 12.2229 1.02033 12.3165 1.39027 12.3173C1.76021 12.3181 2.11552 12.2262 2.37803 12.0617L8.77688 8.02376C9.56008 7.52892 10 6.85814 10 6.15875C10 5.45937 9.56008 4.78859 8.77688 4.29374Z" fill="black"/>
</svg>
