          <svg style="width:80px; height:auto" width="166" height="129" viewBox="0 0 166 129" fill="none" xmlns="http://www.w3.org/2000/svg">
            <path d="M11.1449 123.106H25.5451V128.593H2.08276V124.833L16.4416 104.508H2V99H25.4003V102.659L11.1449 123.106Z" fill="#FF5C01"/>
            <path d="M52.4834 99V118.37C52.4834 120.565 52.0075 122.469 51.0558 124.081C50.1041 125.68 48.7385 126.9 46.9592 127.74C45.1799 128.58 43.0764 129 40.6488 129C36.9798 129 34.0901 128.065 31.9797 126.195C29.8693 124.325 28.7934 121.764 28.7521 118.512V99H36.0556V118.654C36.1384 121.893 37.6694 123.512 40.6488 123.512C42.1522 123.512 43.2902 123.106 44.0626 122.293C44.835 121.48 45.2212 120.159 45.2212 118.329V99H52.4834Z" fill="#FF5C01"/>
            <path d="M57.0352 128.593V99H67.856C71.7319 99 74.6768 99.6978 76.6906 101.093C78.7182 102.489 79.732 104.515 79.732 107.171C79.732 108.702 79.3734 110.009 78.6562 111.093C77.9389 112.178 76.8837 112.977 75.4906 113.492C77.063 113.898 78.2699 114.657 79.1113 115.768C79.9527 116.879 80.3734 118.234 80.3734 119.833C80.3734 122.733 79.4355 124.915 77.5596 126.378C75.6975 127.828 72.9319 128.566 69.2629 128.593H57.0352ZM64.2974 116.012V123.106H69.056C70.3664 123.106 71.3733 122.814 72.0768 122.232C72.7802 121.636 73.1319 120.802 73.1319 119.732C73.1319 117.266 71.8837 116.026 69.3871 116.012H64.2974ZM64.2974 111.337H68.0836C69.6698 111.324 70.8009 111.039 71.4768 110.484C72.1526 109.928 72.4906 109.108 72.4906 108.024C72.4906 106.778 72.125 105.883 71.394 105.341C70.6629 104.786 69.4836 104.508 67.856 104.508H64.2974V111.337Z" fill="#FF5C01"/>
            <path d="M95.5805 118.146H91.6494V128.593H84.3873V99H96.2426C99.8151 99 102.608 99.7791 104.622 101.337C106.636 102.896 107.643 105.098 107.643 107.943C107.643 110.003 107.215 111.71 106.36 113.065C105.519 114.42 104.194 115.518 102.388 116.358L108.677 128.289V128.593H100.898L95.5805 118.146ZM91.6494 112.638H96.2426C97.6219 112.638 98.6564 112.286 99.3461 111.581C100.05 110.863 100.401 109.867 100.401 108.593C100.401 107.32 100.05 106.324 99.3461 105.606C98.6426 104.874 97.6081 104.508 96.2426 104.508H91.6494V112.638Z" fill="#FF5C01"/>
            <path d="M116.022 121.947C117.126 121.947 118.043 122.272 118.774 122.923C119.505 123.56 119.87 124.379 119.87 125.382C119.87 126.385 119.505 127.211 118.774 127.862C118.043 128.499 117.126 128.817 116.022 128.817C114.905 128.817 113.981 128.492 113.25 127.841C112.532 127.191 112.174 126.371 112.174 125.382C112.174 124.393 112.532 123.573 113.25 122.923C113.981 122.272 114.905 121.947 116.022 121.947Z" fill="#FF5C01"/>
            <path d="M127.448 128.593H123.951V112.984H127.448V128.593Z" fill="#FF5C01"/>
            <path d="M133.283 128.593H129.786V117.598H133.283V128.593ZM129.579 114.762C129.579 114.274 129.758 113.875 130.117 113.563C130.476 113.251 130.941 113.096 131.514 113.096C132.086 113.096 132.551 113.251 132.91 113.563C133.269 113.875 133.448 114.274 133.448 114.762C133.448 115.25 133.269 115.65 132.91 115.961C132.551 116.273 132.086 116.429 131.514 116.429C130.941 116.429 130.476 116.273 130.117 115.961C129.758 115.65 129.579 115.25 129.579 114.762Z" fill="#FF5C01"/>
            <path d="M136.21 128.593V119.976H134.586V117.598H136.21V116.724C136.21 115.47 136.586 114.498 137.338 113.807C138.089 113.116 139.145 112.77 140.503 112.77C141 112.77 141.545 112.841 142.138 112.984L142.148 115.504C141.934 115.443 141.648 115.413 141.29 115.413C140.234 115.413 139.707 115.86 139.707 116.754V117.598H141.89V119.976H139.707V128.593H136.21Z" fill="#FF5C01"/>
            <path d="M148.283 128.797C146.565 128.797 145.176 128.295 144.114 127.293C143.052 126.283 142.521 124.972 142.521 123.36V123.075C142.521 121.951 142.731 120.958 143.152 120.098C143.579 119.237 144.2 118.573 145.014 118.106C145.827 117.631 146.793 117.394 147.91 117.394C149.483 117.394 150.724 117.875 151.634 118.837C152.545 119.793 153 121.127 153 122.841V124.173H146.069C146.193 124.789 146.465 125.274 146.886 125.626C147.307 125.978 147.852 126.154 148.521 126.154C149.624 126.154 150.486 125.775 151.107 125.016L152.7 126.866C152.266 127.455 151.648 127.926 150.848 128.278C150.055 128.624 149.2 128.797 148.283 128.797ZM147.89 120.037C146.869 120.037 146.262 120.701 146.069 122.028H149.586V121.764C149.6 121.215 149.459 120.792 149.162 120.494C148.865 120.189 148.441 120.037 147.89 120.037Z" fill="#FF5C01"/>
            <path d="M162.149 66.0858V58.4432C168.187 70.6523 166.294 62.0751 162.149 53.2208C159.373 47.2888 150.882 35.6787 146.223 33.5964C143.211 28.4674 117.3 -22.504 71.3985 11.7714C33.8785 39.7883 14.114 30.4456 13.957 38.7868C13.8 47.128 18.4679 48.9158 7.75291 66.0858C2.33992 68.7913 -7.32393e-05 73.2827 1.71926e-09 80.0153C21.5359 55.6387 18.4679 45.3653 18.4679 45.3653C22.2554 70.6195 3.70918 95 3.70918 95H26.8919C57.4932 70.6523 90.8762 78.2971 90.8762 78.2971L82.5305 94.9657L107.568 95L123.332 70.6523C123.332 70.6523 133.682 65.2154 123.332 84.5552L150.535 80.0153L154.442 75.7067L157.012 69.0348L162.149 66.0858Z" fill="#FF5C01"/>
            <path d="M141 50.9978L145.937 59C148.331 59 152.729 58.8222 151.173 58.1109C149.617 57.3996 149.528 55.7399 149.528 54.4062C151.772 52.4797 158.354 53.6652 160 53.6652C153.058 49.3974 142.197 49.3678 141 50.9978Z" fill="white"/>
          </svg>
